# xmcd CD database file
#
# Track frame offsets:
#	182
#	13425
#	24425
#	36162
#	48500
#	60545
#	72900
#	86150
#	96137
#	107237
#	118450
#	130825
#	143350
#	154937
#	166837
#	178625
#
# Disc length: 2539 seconds
#
# Revision: 0
# Processed by: cddbd v1.4PL0 Copyright (c) Steve Scherf et al.
# Submitted via: CDex 1.50
#
DISCID=dd09e910
DTITLE=Hank Williams - Greatest Hits
DYEAR=1900
DGENRE=Country
TTITLE0=Your cheatin' heart
TTITLE1=I can't help it
TTITLE2=I'll never get out of this world
TTITLE3=Baby, we're really in love
TTITLE4=I won't be home no more
TTITLE5=Hey, good lookin'
TTITLE6=Kaw-Liga
TTITLE7=Long gone lonesome blues
TTITLE8=Jambalaya
TTITLE9=Lovesick Blues
TTITLE10=Half as much
TTITLE11=Honky tonk blues
TTITLE12=Settin' the woods on fire
TTITLE13=Weary blues from waitin'
TTITLE14=Crazy Heart
TTITLE15=Take these chains from my heart
EXTD=
EXTT0=
EXTT1=
EXTT2=
EXTT3=
EXTT4=
EXTT5=
EXTT6=
EXTT7=
EXTT8=
EXTT9=
EXTT10=
EXTT11=
EXTT12=
EXTT13=
EXTT14=
EXTT15=
PLAYORDER=
